<?xml version="1.0" encoding="UTF-8"?>
<svg id="_レイヤー_1" data-name="レイヤー 1" xmlns="http://www.w3.org/2000/svg" viewBox="0 0 283.465 283.465">
  <defs>
    <style>
      .cls-1 {
        fill: #fff;
      }

      .cls-1, .cls-2 {
        stroke-width: 0px;
      }

      .cls-2 {
        fill: #626262;
        isolation: isolate;
      }
    </style>
  </defs>
  <circle class="cls-2" cx="141.732" cy="141.732" r="141.732"/>
  <path class="cls-1" d="m25.554,138.797c5.988-.909,11.823-1.796,17.659-2.681.175-.027.352-.047.529-.06,10.002-.765,15.696-3.761,18.76-15.773,8.93-35.011,32.85-55.475,68.433-61.63,3.875-.67,5.91-1.936,6.624-5.916,1.781-9.928,3.866-19.801,6.019-30.654,2.337,12.317,4.516,23.8,6.738,35.514,5.677,1.491,11.491,2.812,17.177,4.555,10.16,3.114,19.723,7.913,26.742,15.848,13.475,15.234,27.318,30.504,29.572,52.307.131,1.266,2.104,3.172,3.411,3.349,9.631,1.305,19.31,2.246,29.155,4.044-3.504.802-6.976,1.806-10.519,2.36-5.895.922-11.879,1.323-17.724,2.471-1.493.293-3.339,2.38-3.735,3.967-.895,3.589-.217,7.69-1.548,11.032-3.986,10.003-8.493,19.805-13.051,29.566-5.657,12.112-15.509,20.386-26.847,26.441-6.548,3.497-14.227,5.008-21.532,6.881-8.17,2.096-11.906,5.758-13.422,14.301-1.391,7.835-2.857,15.656-4.965,23.656-1.083-5.644-2.169-11.287-3.247-16.932-.367-1.921-.615-3.869-1.079-5.765-2.491-10.179-3.225-10.393-13.337-12.357-5.269-1.023-10.464-3.166-15.283-5.615-6.141-3.121-12.123-6.706-17.729-10.718-19.472-13.934-29.286-33.688-32.449-56.961-.584-4.3-1.805-5.58-5.864-6.157-9.362-1.33-18.638-3.278-28.492-5.074Zm69.036-4.15c.038.496.076.992.113,1.488-4.7,1.169-9.39,2.377-14.101,3.497-6.018,1.43-7.308,2.844-5.231,8.721,1.865,5.279,4.895,10.165,7.607,15.117,15.353,28.028,47.091,41.584,77.467,32.42,26.761-8.074,41.961-27.063,48.157-54.182-4.092-1.314-8.082-2.595-13.452-4.319,4.496-1.462,7.689-2.064,10.404-3.549,1.596-.873,3.515-3.193,3.451-4.787-1.478-36.537-22.908-59.588-57.776-65.912-3.734-.677-6.134.404-6.165,4.953-.032,4.623-.663,9.241-1.032,13.861-.436.05-.873.1-1.309.15-1.22-3.397-2.751-6.718-3.599-10.207-2.319-9.546-2.774-9.839-11.752-7.855-36.615,8.091-52.488,40.055-52.815,64.62-.061,4.6,1.734,6.07,5.863,6.004,4.722-.075,9.447-.017,14.171-.017Z"/>
  <path class="cls-1" d="m110.349,136.25c6.403-.637,11.702-1.301,17.023-1.664,10.221-.698,13.871-4.355,14.037-14.823.144-9.065.03-18.135.03-27.202.563-.08,1.127-.159,1.69-.239.265,1.313.472,2.64.803,3.936,2.71,10.602,4.934,21.375,8.475,31.69,1.083,3.156,5.547,5.515,8.929,7.388,2.958,1.638,6.572,2.08,11.005,3.373-5.057.482-9.039.722-12.976,1.277-3.939.555-6.493,2.237-7.193,6.922-.577,3.859-3.565,7.33-4.281,11.198-1.667,9.006-2.59,18.15-3.868,27.231-.128.913-.616,1.775-1.896,2.568-.78-7.291-1.451-14.596-2.386-21.866-.447-3.477-1.075-6.995-2.173-10.311-3.97-11.998-12.595-17.67-24.998-17.956-.388-.009-.764-.501-2.222-1.521Z"/>
</svg>