<?xml version="1.0" encoding="UTF-8"?>
<svg id="_レイヤー_1" data-name="レイヤー 1" xmlns="http://www.w3.org/2000/svg" viewBox="0 0 283.465 283.465">
  <defs>
    <style>
      .cls-1 {
        fill: #2A3036;
      }

      .cls-1, .cls-2 {
        stroke-width: 0px;
      }

      .cls-2 {
        fill: #99977a90;
        isolation: isolate;
      }
    </style>
  </defs>
  <circle class="cls-2" cx="141.732" cy="141.732" r="141.732"/>
  <path class="cls-1" d="m23.206,80.652c.9.431,2.067.634,2.66,1.328,11.762,13.743,26.399,24.01,40.906,34.529,16.158,11.716,33.573,21.006,51.752,29.052,1.566.693,2.808,2.5,3.804,4.044,10.023,15.548,9.11,33.425,10.669,50.769,1.047,11.644,1.747,23.33,3.214,34.92.516,4.075,2.854,7.919,4.36,11.869.875.051,1.75.102,2.625.152,1.585-3.836,4.196-7.571,4.585-11.524,2.1-21.338,2.9-42.831,5.754-64.055,1.156-8.595,6.346-16.657,9.813-24.914.271-.644,1.392-1.021,2.19-1.341,24.887-9.993,47.069-24.57,68.03-40.989,9.419-7.378,17.825-16.049,26.69-24.134-3.43,6.333-6.89,12.65-10.283,19.004-8.094,15.157-16.148,30.336-24.247,45.491-.824,1.542-1.847,2.978-3.062,4.917-1.296-1.773-2.366-3.237-4.246-5.808-4.967,2.73-10.131,5.177-14.881,8.262-8.913,5.789-17.552,11.999-26.372,17.935-7.067,4.757-8.058,6.496-7.362,14.778,12.984-5.87,25.777-11.654,39.71-17.953-9.348,14.038-18.281,27.454-27.933,41.949-.728-2.707-1.086-4.038-1.426-5.302-.376-.117-.549-.23-.706-.212q-12.544,1.506-14.417,13.749c-.395,2.595-.709,5.203-1.253,9.226,4.784-2.184,8.61-3.93,12.436-5.677.381.28.763.56,1.144.839-4.287,6.83-4.073,16.152-13.166,20.407-1.997.935-3.349,3.434-4.772,5.378-5.408,7.387-10.724,14.842-17.151,23.765-5.911-7.752-10.885-14.06-15.609-20.551-2.848-3.913-4.428-8.625-10.13-10.138-1.911-.507-3.03-4.446-4.272-6.935-2-4.008-3.801-8.115-4.713-12.965,3.861,1.824,7.722,3.649,12.706,6.004-.941-7.003-1.572-12.89-2.662-18.69-.19-1.009-2.211-1.994-3.563-2.401-3.165-.954-6.438-1.551-9.965-2.361-.426,1.683-.748,2.951-1.479,5.837-9.65-14.375-18.62-27.736-28.15-41.931,13.816,6.224,26.681,12.02,40.054,18.046.297-5.345.046-9.458-4.5-12.565-11.695-7.993-23.065-16.465-34.829-24.351-2.8-1.877-6.635-2.211-10.188-3.315-1.081,1.59-2.052,3.018-3.591,5.282-12.907-23.469-25.541-46.445-38.176-69.42Z"/>
  <path class="cls-1" d="m142.022,150.754c-6.745-13.898-13.329-27.362-19.746-40.906-.44-.93-.078-2.931.665-3.62,5.582-5.174,11.285-10.227,17.146-15.08.808-.669,3.169-.602,4.01.093,5.729,4.735,11.297,9.67,16.767,14.704.814.749,1.518,2.683,1.12,3.523-6.483,13.689-13.152,27.29-19.962,41.286Z"/>
</svg>