<?xml version="1.0" encoding="UTF-8"?>
<svg id="_レイヤー_1" data-name="レイヤー 1" xmlns="http://www.w3.org/2000/svg" viewBox="0 0 327.317 283.465">
  <defs>
    <style>
      .cls-1 {
        fill: #61915e;
      }

      .cls-1, .cls-2 {
        stroke-width: 0px;
      }

      .cls-2 {
        fill: #fff;
      }
    </style>
  </defs>
  <polygon class="cls-2" points="245.488 0 81.829 0 0 141.732 81.829 283.465 245.488 283.465 327.317 141.732 245.488 0"/>
  <path class="cls-1" d="m194.663,48.762c-6.841-4.528-14.452-7.515-18.981-14.163s-7.804-17.921-7.804-17.921c0,0-3.179,11.947-10.02,18.884-6.841,6.937-20.329,11.465-27.074,17.246-6.744,5.781-16.283,20.233-17.535,29.771-1.253,9.538.65,21.983,2.309,26.087,1.377,3.407-7.126,18.811-7.126,18.811l26.688-16.861s-7.419-15.801-1.927-31.313c5.492-15.512,21.293-22.545,32.373-22.353,11.08.193,33.818,7.226,32.758,34.492s-20.426,35.649-31.024,36.612c-10.598.963-20.201-3.019-20.201-3.019,0,0,6.038,10.791,8.286,20.683,1.812,7.974,3.469,27.812,3.436,34.717-.032,6.905,0,73.899,0,75.826s.096,6.23,4.432,6.23,5.428-4.079,5.428-5.974,2.147-81.289,2.762-88.865c.514-6.327,1.638-15.801,6.166-21.775,4.528-5.974,12.814-9.731,20.329-14.356,7.515-4.625,19.848-16.668,19.848-41.333s-16.283-36.901-23.123-41.429Z"/>
  <path class="cls-1" d="m169.497,101.721c1.612-3.533,5.838-9.185,5.838-9.185,0,0-5.203-6.616-7.258-10.341-2.055-3.725-4.419-14.131-4.419-14.131,0,0-2.363,10.406-4.419,14.131-2.055,3.725-7.258,10.341-7.258,10.341,0,0,4.226,5.652,5.838,9.185,1.612,3.533,5.838,13.489,5.838,13.489,0,0,4.226-9.956,5.838-13.489Z"/>
  <path class="cls-1" d="m87.144,61.86c.857,1.171,1.442,2.609,2.678,3.459,1.202.86,2.542,1.59,4.41,1.82,0,0,.315-.298.315-.298-.284-2.638-1.194-4.574-3.088-6.068-1.085-.708-2.494-1.846-3.504-2.677-1.708-1.304-3.586-2.719-5.379-3.9,0,0-.315.298-.315.298,1.083,1.858,2.39,3.806,3.599,5.584l1.284,1.782Z"/>
  <path class="cls-1" d="m252.01,162.355c2.534-10.928,2.87-22.404,1.236-33.433,0,0-.258.03-.259.03.964,12.059-.315,22.378-3.119,32.432-2.267-.835-4.574-1.006-7.184.052l-.113.419c1.199,1.566,2.588,2.431,4.027,3.113.644.319,1.331.466,2.031.554-2.396,7.459-5.582,14.881-9.3,22.873l.219.14c3.4-4,6.117-8.556,8.331-13.333,1.294-3.069,2.371-6.225,3.263-9.437.035.005.071.008.105.013,1.17.181,3.529.481,4.707.602,1.582.153,3.162.313,4.764.392l.113-.419c-2.75-1.41-5.807-2.769-8.677-3.923-.048-.026-.096-.049-.144-.075Z"/>
  <path class="cls-1" d="m269.912,111.066c-3.742.344-7.785.904-11.497,1.53-4.076.316-7.723,1.262-10.706,4.46,0,0,.113.419.113.419,2.162.658,4.135.613,6.059.387,1.944-.2,3.644-1.241,5.438-1.916,1.353-.501,4.05-1.567,5.381-2.125,1.781-.756,3.564-1.505,5.325-2.335l-.113-.419Z"/>
  <path class="cls-1" d="m91.958,181.812s-.22-.373-.22-.373c-2.051.289-3.938.855-5.744,1.559-.736-1.36-1.442-2.731-2.115-4.112,3.733-1.396,7.124-3.335,9.838-6.602l-.181-.394c-2.772-.043-5.239.574-7.628,1.364-1.349.428-2.58,1.106-3.786,1.83-11.135-25.383-11.548-53.807,2.647-80.426,1.725.667,3.512,1.217,5.38,1.614,0,0,.222-.372.222-.372-1.266-1.443-2.627-2.782-4.066-4.026.009-.015.017-.031.026-.046l-.26-.162c-2.527-2.152-5.299-3.996-8.263-5.515-4.414-2.093-9.698-4.995-14.097-7.181-3.161-1.548-6.29-3.15-9.479-4.651l-.222.372c5.507,4.019,11.61,8.286,17.292,12.093,4.069,3.03,8.251,5.761,12.876,7.638-5.071,8.289-8.802,17.447-10.965,27.003-.602,2.768-1.076,5.577-1.429,8.407-4.615-2.107-9.485-2.463-14.512-2.322-5.354-.191-11.196-.252-16.535-.169l-.044.431c3.894.879,8.222,1.728,12.16,2.478,2.394.408,5.783.999,8.118,1.54,3.559.657,7.047.606,10.609-.185-1.636,15.455.47,31.511,6.731,45.715-1.748.977-4.229,2.396-5.573,3.19-2.16,1.287-4.322,2.567-6.45,3.924,0,0,.181.394.181.394,4.317-1.332,8.928-2.927,13.226-4.515.745,1.514,1.543,3.001,2.387,4.464-2.141,1.191-4.031,2.794-6.053,4.168-1.798,1.213-5.375,3.703-7.138,4.966-2.341,1.72-4.715,3.386-7.028,5.153l.22.373c5.136-2.301,10.675-4.95,15.709-7.505,2.306-1.001,4.526-2.1,6.61-3.393.812,1.233,1.661,2.444,2.55,3.629,4.964,6.493,10.946,12.459,17.728,16.981,0,0,.279-.332.279-.332-6.739-7.034-12.518-14.649-17.199-22.671,1.525-1.253,2.942-2.667,4.198-4.333Z"/>
  <path class="cls-1" d="m154.476,227.804c-6.579-.468-13.129-1.572-19.539-3.329.4-.705.793-1.41,1.168-2.092l.944-1.841c.613-1.22,1.59-2.322,1.744-3.731.178-1.383.178-2.827-.51-4.508,0,0-.41-.141-.41-.141-2.158,1.352-3.416,2.922-3.826,5.181-.102,1.219-.424,2.893-.668,4.102-.131.807-.263,1.646-.387,2.49-5.306-1.57-10.507-3.585-15.539-6.046,4.758,3.383,9.88,6.145,15.233,8.322-.057.486-.109.969-.151,1.441l.41.141c.25-.385.497-.784.743-1.187,6.66,2.602,13.668,4.286,20.788,5.081,0-1.319,0-2.614-.001-3.883Z"/>
  <path class="cls-1" d="m218.114,210.239c-5.037,3.599-10.372,6.639-15.909,9.148-1.577-2.696-3.41-5.244-5.514-7.592l-.393.183c.221,1.949.656,3.798,1.167,5.611.287,1.154.645,2.277,1.04,3.385-7.945,3.204-16.268,5.303-24.722,6.336-.042,1.485-.083,2.943-.123,4.368,5.301-.584,10.551-1.633,15.652-3.176.011.38.042.753.085,1.123.144,1.49,1.118,2.694,1.726,4.007.454.997,1.424,2.971,1.933,3.942.691,1.299,1.375,2.6,2.139,3.876,0,0,.413-.131.413-.131-.233-2.853-.667-5.917-1.179-8.735-.135-2.018-.504-3.76-1.473-5.267,2.368-.834,4.697-1.775,6.979-2.819,1.297,2.862,2.835,5.619,4.4,8.359,3.374,6.412,7.187,13.342,10.789,19.6l.393-.183c-1.833-5.073-3.981-10.648-5.949-15.696-1.238-3.045-2.978-7.362-4.067-10.417-.483-1.23-1.019-2.435-1.598-3.619,4.406-2.313,8.608-5.018,12.51-8.141,5.083-4.006,9.743-8.641,13.662-13.751-3.834,3.449-7.78,6.697-11.961,9.588Z"/>
</svg>