<?xml version="1.0" encoding="UTF-8"?>
<svg id="_レイヤー_1" data-name="レイヤー 1" xmlns="http://www.w3.org/2000/svg" viewBox="0 0 283.465 283.465">
  <defs>
    <style>
      .cls-1 {
        fill: #2A3036;
      }

      .cls-1, .cls-2 {
        stroke-width: 0px;
      }

      .cls-2 {
        fill: #63956090;
        isolation: isolate;
      }
    </style>
  </defs>
  <circle class="cls-2" cx="141.732" cy="141.732" r="141.732"/>
  <path class="cls-1" d="m161.607,256.872c.681-2.832.972-4.468,1.468-6.038,3.263-10.331,6.925-20.555,9.648-31.026.832-3.198.253-7.907-1.635-10.469-6.162-8.364-7.936-17.27-7.297-27.49.539-8.619-.713-17.345-1.069-26.027-.424-10.325-1.184-20.662-.995-30.98.285-15.556-5.782-29.123-12.003-42.725-.875-1.912-2.019-3.7-1.511-3.806-6.356,5.299-12.751,10.551-19.045,15.924-1.883,1.607-3.173,4.154-5.265,5.236-10.934,5.66-12.108,15.689-12.956,26.433-1.511,19.136-3.437,38.251-5.699,57.313-1.703,14.347,2.431,27.62,7.069,40.595,3.737,10.455,9.443,20.2,14.323,30.358-34.85-20.401-62.746-48.336-85.242-82.114,10.991,9.5,22.36,18.188,37.025,22.423,4.041-5.191,8.412-10.724,12.656-16.354.585-.776.748-2.026.76-3.061.222-19.219.793-38.447.361-57.652-.156-6.953-2.386-13.954-4.357-20.731-1.062-3.652-.429-5.689,2.331-8.151,13.502-12.043,27.462-23.68,39.904-36.763,6.712-7.058,10.704-16.731,15.893-25.173,2.375,5.487,5.193,11.964,7.983,18.454,8.77,20.399,19.489,39.508,35.495,55.239,1.219,1.198,2.004,3.919,1.582,5.567-6.177,24.071-6.746,48.559-5.749,73.177.078,1.931.193,4.004.926,5.74,3.098,7.343,6.436,14.584,9.795,22.105,16.027-4.748,32.512-7.226,46.064-18.942-7.93,15.403-43.682,46.01-80.459,68.942Z"/>
  <path class="cls-1" d="m142.541,103.476c.566,8.595.762,17.235,1.783,25.775,1.535,12.839,3.807,25.589,5.392,38.423.347,2.807-.887,5.809-1.377,8.724-2.02,12.024-4.137,24.033-5.997,36.082-.701,4.541-.803,9.176-1.277,14.976-3.849-8.262-7.226-15.507-10.601-22.754-.45-.966-.814-1.98-1.348-2.895-3.032-5.194-3.561-10.031-2.287-16.469,2.001-10.109,1.027-20.815,1.273-31.27.029-1.238-.124-2.491-.301-3.722-1.567-10.903-.083-21.044,6.219-30.45,2.419-3.61,3.475-8.138,5.177-12.238.625-1.504,1.323-2.976,1.988-4.463l1.356.28Z"/>
</svg>