<?xml version="1.0" encoding="UTF-8"?>
<svg id="_レイヤー_1" data-name="レイヤー 1" xmlns="http://www.w3.org/2000/svg" viewBox="0 0 283.465 283.465">
  <defs>
    <style>
      .cls-1 {
        fill: #2A3036;
      }

      .cls-1, .cls-2 {
        stroke-width: 0px;
      }

      .cls-2 {
        fill: #96545490;
        isolation: isolate;
      }
    </style>
  </defs>
  <circle class="cls-2" cx="141.732" cy="141.732" r="141.732"/>
  <path class="cls-1" d="m146.092,194.558c-10.933-16.894-25.74-29.315-40.838-40.926-13.7-10.535-23.412-24.564-35.852-36.514,14.265,9.498,30.657,11.333,46.91,14.633.131-1.383.36-2.591.34-3.795-.079-4.926,1.221-9.104,5.781-11.734,3.038-1.752,4.506-4.697,1.229-6.818-19.856-12.852-11.242-2.472-2.191-24.22,5.615-13.492,10.92-27.301,16.173-41.06,1.379-3.611,2.711-7.241,4.555-12.175,2.846,7.069,4.909,13.224,7.736,19.002,6.313,12.901,12.771,25.745,19.704,38.316,1.84,3.336,5.613,5.596,8.953,8.784-14.913,13.732-29.91,27.542-45.595,41.985,4.393,3.815,7.644,6.638,11.254,9.773,3.644-3.132,7.011-6.23,10.591-9.056,5.694-4.494,11.502-8.845,17.335-13.157.941-.696,2.234-1.112,3.412-1.253,16.849-2.014,33.707-3.962,50.564-5.905.502-.058,1.03.112,2.417.282-5.14,3.101-9.601,5.97-14.224,8.542-8.21,4.568-16.79,8.527-24.697,13.562-5.758,3.667-11.205,8.164-15.852,13.17-6.629,7.142-12.649,14.902-18.443,22.76-3.419,4.638-5.897,9.975-9.263,15.801Z"/>
  <path class="cls-1" d="m78.701,221.124c-.319-5.579-1.071-11.172-.877-16.733.662-18.989-9.901-32.152-22.031-44.784-9.782-10.187-19.107-20.817-28.149-32.078,6.441,3.833,12.541,8.494,19.388,11.339,18.648,7.749,33.049,21.793,49.645,32.549,1.632,1.058,3.296,2.456,5.108,2.78,10.819,1.932,16.392,10.522,22.88,17.896,6.787,7.713,13.35,15.625,20.275,23.76,6.973-8.718,13.4-16.885,19.98-24.925,3.15-3.849,6.162-8.009,10.015-11.027,3.944-3.09,9.155-4.509,13.258-7.441,12.825-9.162,25.187-18.985,38.12-27.984,9.276-6.454,19.18-11.997,29.507-17.092-10.913,14.388-23.488,27.83-32.272,43.428-8.831,15.681-13.889,33.506-21.008,51.42-1.414-10.1-2.669-19.057-4.091-29.218-4.332,3.286-8.125,5.791-11.488,8.783-10.705,9.523-19.155,20.908-26.511,33.162-.627,1.044-1.46,2.015-2.368,2.827-5.001,4.471-10.056,8.881-15.567,13.73-.727-.873-2.091-2.002-2.809-3.454-6.382-12.91-16.807-22.37-26.98-32.027-4.595-4.362-9.153-8.862-14.269-12.541-4.513-3.245-7.761-1.806-10.49,3.344-2.597,4.899-5.237,9.774-7.858,14.66-.469-.125-.938-.249-1.408-.374Z"/>
</svg>