<?xml version="1.0" encoding="UTF-8"?>
<svg id="_レイヤー_1" data-name="レイヤー 1" xmlns="http://www.w3.org/2000/svg" viewBox="0 0 283.465 283.465">
  <defs>
    <style>
      .cls-1 {
        fill: #8e5050;
      }

      .cls-1, .cls-2 {
        stroke-width: 0px;
      }

      .cls-2 {
        fill: #00000000;
      }
    </style>
  </defs>
  <circle class="cls-2" cx="141.732" cy="141.732" r="141.732"/>
  <path class="cls-1" d="m231.452,223.334l-1.961.386s-19.47-20.354-28.9-29.536c-8.445-8.222-6.467-11.895-6.467-11.895l15.38-15.478,2.331.229,4.987-5.184-9.158-9.451-4.304,4.205.208,3.533-14.576,13.641s-13.788-14.1-31.492-31.992c19.021-18.94,38.907-38.989,49.656-50.568,24.67-26.578,28.458-43.373,28.458-43.373,0,0-16.795,3.787-43.373,28.458-11.568,10.738-31.586,30.593-50.509,49.596-18.922-19.003-38.941-38.859-50.509-49.596-26.578-24.67-43.373-28.458-43.373-28.458,0,0,3.787,16.795,28.458,43.373,10.749,11.58,30.635,31.628,49.656,50.568-17.704,17.891-31.492,31.992-31.492,31.992l-14.576-13.641.208-3.533-4.304-4.205-9.158,9.451,4.987,5.184,2.331-.229,15.38,15.478s1.978,3.673-6.467,11.895c-9.43,9.181-28.9,29.536-28.9,29.536l-1.961-.386-4.137,4.724-.025,7.556,7.556-.025,4.724-4.137-.386-1.961s20.354-19.47,29.536-28.9c8.222-8.445,11.895-6.467,11.895-6.467l15.478,15.38-.229,2.331,5.184,4.987,9.451-9.158-4.205-4.304-3.533.208-13.641-14.576s14.132-13.819,32.051-31.551c17.919,17.732,32.051,31.551,32.051,31.551l-13.641,14.576-3.533-.208-4.205,4.304,9.451,9.158,5.184-4.987-.229-2.331,15.478-15.38s3.673-1.978,11.895,6.467c9.181,9.43,29.536,28.9,29.536,28.9l-.386,1.961,4.724,4.137,7.556.025-.025-7.556-4.137-4.724Z"/>
</svg>