<?xml version="1.0" encoding="UTF-8"?>
<svg id="_レイヤー_1" data-name="レイヤー 1" xmlns="http://www.w3.org/2000/svg" viewBox="0 0 283.465 283.465">
  <defs>
    <style>
      .cls-1 {
        fill: #61915e;
      }

      .cls-1, .cls-2 {
        stroke-width: 0px;
      }

      .cls-2 {
        fill: #00000000;
      }
    </style>
  </defs>
  <circle class="cls-2" cx="141.732" cy="141.732" r="141.732"/>
  <path class="cls-1" d="m228.001,218.028l-1.901.374s-18.868-19.725-28.007-28.623c-8.184-7.968-6.267-11.528-6.267-11.528l14.904-15,2.259.222,4.833-5.024-8.875-9.159-4.171,4.075.202,3.424-14.126,13.219s-13.362-13.665-30.519-31.003c18.433-18.355,37.705-37.784,48.122-49.006,23.908-25.756,27.578-42.033,27.578-42.033,0,0-16.276,3.67-42.033,27.578-11.21,10.406-30.61,29.648-48.948,48.064-18.338-18.416-37.738-37.658-48.948-48.064-25.756-23.908-42.033-27.578-42.033-27.578,0,0,3.67,16.276,27.578,42.033,10.417,11.222,29.688,30.651,48.122,49.006-17.157,17.338-30.519,31.003-30.519,31.003l-14.126-13.219.202-3.424-4.171-4.075-8.875,9.159,4.833,5.024,2.259-.222,14.904,15s1.917,3.56-6.267,11.528c-9.139,8.897-28.007,28.623-28.007,28.623l-1.901-.374-4.009,4.578-.024,7.323,7.323-.024,4.578-4.009-.374-1.901s19.725-18.868,28.623-28.007c7.968-8.184,11.528-6.267,11.528-6.267l15,14.904-.221,2.259,5.024,4.833,9.159-8.875-4.075-4.171-3.424.202-13.219-14.126s13.695-13.392,31.061-30.576c17.366,17.184,31.061,30.576,31.061,30.576l-13.219,14.126-3.424-.202-4.075,4.171,9.159,8.875,5.024-4.833-.222-2.259,15-14.904s3.56-1.917,11.528,6.267c8.897,9.139,28.623,28.007,28.623,28.007l-.374,1.901,4.578,4.009,7.323.024-.024-7.323-4.009-4.578Z"/>
  <path class="cls-1" d="m83.777,183.093c1.044-1.348,1.561-2.329,1.802-2.941l-4.186-4.212c.779,2.563,1.575,4.968,2.384,7.153Z"/>
  <path class="cls-1" d="m213.211,108.014c-.634,4.186-3.049,19.718-6.433,36.444l2.389,2.466c4.057-19.711,6.781-38.21,6.985-39.602l.161-1.099-15.114-5.972c-.677.707-1.378,1.436-2.102,2.186l14.114,5.577Z"/>
  <path class="cls-1" d="m198.383,178.287c-.372,1.136-.747,2.231-1.124,3.273.436.712,1.066,1.592,2,2.664,1.159-3.004,2.293-6.47,3.392-10.232l-4.268,4.295Z"/>
  <path class="cls-1" d="m114.45,90.549l27.282-10.781,26.315,10.399c.749-.734,1.475-1.446,2.195-2.149l-28.51-11.266-29.476,11.648c.718.703,1.447,1.417,2.194,2.15Z"/>
  <path class="cls-1" d="m67.151,106.223l.16,1.099c.199,1.365,2.822,19.175,6.748,38.448l2.392-2.469c-3.262-16.281-5.581-31.198-6.2-35.287l13.133-5.19c-.723-.749-1.425-1.479-2.103-2.186l-14.131,5.584Z"/>
  <path class="cls-1" d="m188.534,199.248c-.509-.523-.979-.974-1.431-1.394-6.903,6.999-16.616,13.786-25.35,19.198l-1.21,1.164-.264-.255c-8.83,5.388-16.388,9.256-18.547,10.34-2.227-1.117-10.195-5.2-19.377-10.851l-.791.766-3.829-3.684c-7.886-5.112-16.087-11.154-22.013-17.334-.618.541-1.3,1.186-2.039,1.94,15.666,16.384,45.916,31.25,47.433,31.99l.615.3.615-.3c1.496-.729,30.918-15.187,46.761-31.294-.195-.199-.388-.396-.573-.587Z"/>
  <path class="cls-1" d="m79.1,188.05c-2.118-5.422-4.186-12.309-6.14-19.863l-1.642.161-9.533-9.912,7.141-7.37c-4.469-20.617-7.886-41.749-9.174-50.049l15.916-6.289c-.498-.531-.986-1.053-1.445-1.548-1.868-2.013-3.604-3.964-5.242-5.866l-19.573,7.734.534,3.664c.433,2.964,10.38,70.478,22.025,96.503,2.559-2.602,5.021-5.081,7.131-7.166Z"/>
  <path class="cls-1" d="m234.055,95.049l-20.586-8.135c-1.736,2.026-3.586,4.112-5.586,6.266-.343.37-.715.766-1.079,1.156l16.907,6.681c-1.311,8.453-4.833,30.216-9.423,51.19l6.036,6.229-9.534,9.912-.32-.031c-2.062,7.958-4.25,15.168-6.49,20.696,2.144,2.132,4.582,4.594,7.084,7.143,11.83-25.295,22.019-94.441,22.457-97.443l.535-3.664Z"/>
  <path class="cls-1" d="m106.317,82.618l35.415-13.994,34.452,13.614c2.755-2.665,5.23-5.034,7.436-7.117l-41.888-16.552-42.843,16.929c2.206,2.088,4.69,4.469,7.428,7.12Z"/>
  <path class="cls-1" d="m193.636,204.388c-15.595,15.785-44.053,30.896-51.904,34.909-7.966-4.071-37.132-19.566-52.567-35.599-2.055,2.049-4.319,4.281-6.618,6.532,19.312,19.922,55.312,37.616,57.136,38.505l2.049.999,2.049-.999c1.802-.879,37.011-18.184,56.471-37.829-2.278-2.228-4.54-4.453-6.616-6.518Z"/>
</svg>