<?xml version="1.0" encoding="UTF-8"?>
<svg id="_レイヤー_1" data-name="レイヤー 1" xmlns="http://www.w3.org/2000/svg" viewBox="0 0 283.465 283.465">
  <defs>
    <style>
      .cls-1 {
        fill: #666072;
        isolation: isolate;
      }

      .cls-1, .cls-2 {
        stroke-width: 0px;
      }

      .cls-2 {
        fill: #fff;
      }
    </style>
  </defs>
  <circle class="cls-1" cx="141.732" cy="141.732" r="141.732"/>
  <path class="cls-2" d="m86.652,211.339c5.225-7.913,10.316-15.623,16.124-24.42-10.148-6.119-19.042-11.73-28.23-16.803-1.716-.948-4.711-.095-6.938.549-3.848,1.114-6.864.794-10.008-2.184-5.706-5.406-11.881-10.311-17.861-15.424.281-.416.563-.833.844-1.249,1.881.773,3.974,1.239,5.608,2.372,8.468,5.869,16.508,2.346,22.892-2.734,6.697-5.33,12.218-6.905,19.056-1.454.534.426,1.22.666,1.853.953.132.06.342-.053.765-.134-.851-7.696-1.661-15.42-2.581-23.13-.335-2.808.429-4.532,3.177-5.876,2.646-1.294,5.029-3.328,7.145-5.427.893-.885,1.242-2.816,1.095-4.191-1.175-11.003-2.529-21.986-3.71-31.98,5.935,7.676,12.656,16.368,19.485,25.199,6.694-4.654,12.543-8.875,18.559-12.839,3.135-2.065,4.093-4.688,3.275-8.19-.04-.173-.041-.359-.103-.522-4.083-10.775-3.454-20.525,5.997-28.435,9.917-8.3,11.741-20.264,14.202-31.93.165-.784.338-1.567.507-2.35.439.021.877.041,1.316.062,0,10.835.318,21.685-.214,32.493-.141,2.856-3.238,5.454-4.36,8.407-.927,2.44-1.767,5.426-1.203,7.827,1.459,6.214,3.024,12.591,5.873,18.226,2.232,4.415,5.779,9.286,9.986,11.216,3.506,1.608,8.897-.421,13.313-1.448,7.607-1.769,15.545-2.894,21.414-9.038.987-1.033,2.742-1.325,5.483-2.568-8.87,10.854-16.798,20.555-25.114,30.73,5.867,8.669,12.08,18.185,18.716,27.393,1.459,2.025,4.283,3.873,6.71,4.235,9.451,1.41,18.997,2.178,28.505,3.214,1.725.188,3.436.515,5.153.777.113.458.226.917.339,1.375-8.152,2.83-16.269,5.768-24.467,8.454-6.028,1.975-12.134,3.737-18.274,5.326-1.413.366-3.197-.12-4.653-.65-2.344-.852-4.461-2.559-6.846-3.032-5.917-1.173-8.535,1.208-8.056,7.4,1.079,13.965,2.414,27.91,3.543,40.708-4.725-6.307-10.294-13.74-16.001-21.358-1.814,1.304-2.956,2.102-4.074,2.933-8.453,6.279-8.283,6.239-5.721,16.564,1.192,4.802,1.653,9.795,2.283,14.723.147,1.152-.008,2.642-.636,3.548-4.642,6.697-9.444,13.283-14.187,19.911-3.362,4.699-6.71,9.41-11.084,13.761,1.435-4.985,2.488-10.123,4.395-14.919,2.909-7.318,3.695-14.109-.43-21.429-2.295-4.072-3.296-9.01-4.228-13.689-.856-4.297-2.65-7.269-6.98-8.409-.509-.134-1.089-.291-1.456-.632-9.953-9.255-18.906-1.934-27.961,1.827-4.319,1.794-8.364,4.257-12.239,6.264Zm56.233-26.046c5.329-4.45,9.935-8.058,14.244-11.995,2.16-1.974,4.589-4.266,5.494-6.9,3.113-9.065,5.388-18.419,8.426-27.514,1.652-4.945,1.034-7.515-3.893-10.56-4.744-2.932-8.063-8.311-11.722-12.848-1.944-2.41-3.282-5.314-4.96-8.105-3.911,3.427-7.192,6.959-11.084,9.575-7.773,5.227-15.783,10.122-23.891,14.811-3.944,2.281-4.566,5.212-3.883,9.329,1.483,8.935,2.489,17.951,4.055,26.869.376,2.14,1.687,4.968,3.405,5.871,8.385,4.408,17.054,8.27,23.808,11.467Z"/>
  <path class="cls-2" d="m142.665,172.447c-.806-1.581-1.43-3.293-2.452-4.718-3.511-4.895-7.079-9.754-10.789-14.497-2.058-2.631-2.116-4.66-.036-7.539,5.026-6.957,10.14-13.603,19.12-16.217,2.635,5.75,5.658,11.41,7.754,17.398.792,2.263.149,5.677-1.069,7.881-3.07,5.557-6.839,10.724-10.328,16.048l-2.202,1.644Z"/>
</svg>