<?xml version="1.0" encoding="UTF-8"?>
<svg id="_レイヤー_1" data-name="レイヤー 1" xmlns="http://www.w3.org/2000/svg" viewBox="0 0 283.465 283.465">
  <defs>
    <style>
      .cls-1 {
        fill: #607496;
        isolation: isolate;
      }

      .cls-1, .cls-2 {
        stroke-width: 0px;
      }

      .cls-2 {
        fill: #fff;
      }
    </style>
  </defs>
  <circle class="cls-1" cx="141.732" cy="141.732" r="141.732"/>
  <path class="cls-2" d="m155.924,238.751c-17.574-33.274-38.443-62.978-66.8-85.554,8.281-12.047,16.348-24.079,24.733-35.884,6.682-9.407,13.683-18.591,20.735-27.723.939-1.216,2.956-1.739,4.578-2.24,3.517-1.087,7.101-1.951,10.82-2.95,6.125,6.478,12.7,12.94,18.619,19.961,2.033,2.411,2.482,6.202,3.558,9.395,2.914,8.644,7.888,15.866,14.816,21.687-10.16,12.805-20.213,25.475-30.945,39.001-6.499-14.102-12.411-26.93-18.934-41.083,6.719,3.784,12.296,6.926,17.797,10.024,5.115-4.603,5.699-8.922,1.536-13.833-4.229-4.988-8.816-9.67-12.936-14.149-7.531,10.696-14.999,21.302-22.444,31.876,15.191,11.793,24.721,29.224,36.401,45.91,7.223-7.201,14.4-14.231,21.433-21.404,6.694-6.827,13.346-13.705,19.753-20.801,1.224-1.355,2.117-4.093,1.642-5.751-4.803-16.759-11.061-32.947-18.112-48.923-3.585-8.121-9.357-11.845-16.562-15.191-7.968-3.7-15.761-7.813-23.436-12.097-2.578-1.439-3.75-1.124-5.716.968-7.502,7.986-14.976,16.044-23.033,23.446-13.448,12.355-23.479,27.16-30.452,43.785-3.011,7.179-2.997,15.668-4.11,23.597-.152,1.085.941,2.539,1.785,3.544,7.065,8.418,14.289,16.702,21.288,25.175,3.233,3.914,5.564,11.702,5.998,18.198.827,12.39,1.642,24.781,1.834,37.468-2.043-4.374-4.056-8.763-6.135-13.12-7.147-14.98-14.971-29.554-26.895-41.352-6.8-6.728-13.837-13.231-21.031-19.532-3.802-3.33-5.319-6.26-3.474-11.679,3.948-11.59,5.356-24.249,10.489-35.197,10.875-23.196,23.798-45.339,42.983-62.98,6.401-5.886,12.405-12.234,19.05-17.818,6.471-5.438,13.185-7.285,21.766-2.547,13.289,7.337,27.394,13.179,41.159,19.641,6.34,2.977,10.222,7.535,13.18,14.312,6.601,15.124,15.305,29.319,21.913,44.441,3.608,8.256,4.945,17.576,6.815,26.52,1.194,5.708,1.31,11.637,2.26,17.408.495,3.011-.046,4.738-3.172,5.514-13.654,3.387-24.426,11.766-34.919,20.599-.541.455-1.076.943-1.509,1.498-10.671,13.698-21.345,27.393-31.966,41.13-1.393,1.801-2.5,3.825-4.363,6.71Z"/>
</svg>