<?xml version="1.0" encoding="UTF-8"?>
<svg id="_レイヤー_1" data-name="レイヤー 1" xmlns="http://www.w3.org/2000/svg" viewBox="0 0 283.465 283.465">
  <defs>
    <style>
      .cls-1 {
        fill: #231815;
      }

      .cls-1, .cls-2 {
        stroke-width: 0px;
      }

      .cls-2 {
        fill: #fff;
      }
    </style>
  </defs>
  <circle class="cls-2" cx="141.732" cy="141.732" r="141.732"/>
  <path class="cls-1" d="m173.827,50.674c-7.081-4.687-14.96-7.779-19.647-14.661-4.687-6.882-8.078-18.55-8.078-18.55,0,0-3.291,12.367-10.372,19.548-7.081,7.181-21.044,11.868-28.025,17.852-6.981,5.984-16.855,20.944-18.151,30.817-1.297,9.874.673,22.755,2.39,27.004,1.425,3.527-7.376,19.471-7.376,19.471l27.626-17.453s-7.679-16.356-1.995-32.413c5.685-16.057,22.041-23.337,33.51-23.138,11.469.199,35.006,7.48,33.909,35.704-1.097,28.224-21.143,36.901-32.114,37.898-10.971.997-20.911-3.125-20.911-3.125,0,0,6.25,11.17,8.577,21.409,1.876,8.255,3.59,28.789,3.557,35.937-.033,7.148,0,76.495,0,78.489s.1,6.449,4.588,6.449,5.618-4.222,5.618-6.183,2.222-84.145,2.859-91.987c.532-6.549,1.695-16.356,6.383-22.54,4.687-6.183,13.264-10.073,21.044-14.86,7.779-4.787,20.545-17.254,20.545-42.785s-16.855-38.198-23.936-42.885Z"/>
  <path class="cls-1" d="m147.776,105.493c1.669-3.657,6.044-9.508,6.044-9.508,0,0-5.386-6.848-7.513-10.705-2.128-3.856-4.574-14.627-4.574-14.627,0,0-2.446,10.771-4.574,14.627-2.128,3.856-7.513,10.705-7.513,10.705,0,0,4.374,5.851,6.044,9.508,1.669,3.657,6.044,13.963,6.044,13.963,0,0,4.374-10.306,6.044-13.963Z"/>
  <path class="cls-1" d="m132.225,225.331c-12.986-7.287-34.53-20.769-40.935-33.195-8.724-16.926-16.861-69.057-18.084-77.138l13.236-5.23c-.188-.84-.369-1.735-.537-2.683l-15.675,6.194.154,1.055c.359,2.456,8.888,60.364,18.514,79.037,7.024,13.628,30.29,27.887,43.329,35.076,0-1.059,0-2.097,0-3.116Z"/>
  <path class="cls-1" d="m200.773,108.288c-.193.906-.404,1.786-.628,2.648l10.279,4.062c-1.224,8.082-9.36,60.213-18.084,77.138-6.223,12.073-26.745,25.149-39.817,32.565-.031,1.064-.062,2.123-.092,3.177,13.199-7.354,35.459-21.231,42.302-34.508,9.625-18.673,18.155-76.581,18.513-79.037l.154-1.055-12.628-4.99Z"/>
  <path class="cls-1" d="m202.209,91.401c.026.732.042,1.454.042,2.158,0,2.585-.128,5.035-.356,7.37l18.606,7.352c-2.259,14.563-11.351,70.287-20.948,88.906-7.271,14.107-32.082,29.659-47.338,38.228-.104,3.663-.202,7.177-.291,10.432,15.054-8.122,46.375-26.634,55.608-44.547,11.704-22.709,21.955-92.28,22.385-95.231l.514-3.517-28.222-11.152Z"/>
  <path class="cls-1" d="m132.227,235.872c-15.173-8.466-40.75-24.326-48.151-38.685-9.597-18.619-18.689-74.343-20.947-88.906l21.817-8.621c-.264-3.114-.368-6.381-.246-9.555l-31.5,12.447.513,3.517c.431,2.95,10.68,72.522,22.385,95.231,9.342,18.126,41.296,36.862,56.133,44.829-.001-3.58-.002-6.996-.003-10.258Z"/>
</svg>