<?xml version="1.0" encoding="UTF-8"?>
<svg id="_レイヤー_1" data-name="レイヤー 1" xmlns="http://www.w3.org/2000/svg" viewBox="0 0 330.291 283.465">
  <defs>
    <style>
      .cls-1 {
        fill: #fff;
        stroke-width: 0px;
      }
    </style>
  </defs>
  <path class="cls-1" d="m188.006,65.28L143.036,3.614c-2.863-3.926-8.366-4.787-12.292-1.924L3.614,94.401c-3.926,2.863-4.787,8.366-1.924,12.292l86.545,118.673,99.772-160.087Z"/>
  <path class="cls-1" d="m329.936,228.11l-36.772-125.973-146.443,122.636,15.283,52.357c1.361,4.664,6.246,7.342,10.91,5.98l151.041-44.089c4.664-1.361,7.342-6.246,5.98-10.91Z"/>
  <polygon class="cls-1" points="234.85 52.693 208.642 65.945 188.006 108.055 234.85 52.693"/>
  <path class="cls-1" d="m218.359,145.086s4.716-14.029,11.558-22.601c6.699-8.393,97.988-88.344,97.988-88.344l-60.957,3.828s-32.025,37.472-38.65,44.54c-6.626,7.067-22.748,24.147-22.748,24.147l-18.331,35.076-39.339,24.458-13.804,31.031-55.851,76.073,113.301-114.847,26.834-13.362Z"/>
</svg>