<?xml version="1.0" encoding="UTF-8"?>
<svg id="_レイヤー_1" data-name="レイヤー 1" xmlns="http://www.w3.org/2000/svg" viewBox="0 0 330.981 283.465">
  <defs>
    <style>
      .cls-1 {
        fill: #fff;
        stroke-width: 0px;
      }
    </style>
  </defs>
  <path class="cls-1" d="m276.897,49.348l-9.058,17.966c-.294.572-.581,1.138-.873,1.708,25.608,19.539,42.17,50.329,42.291,84.998.202,57.842-46.155,105.901-103.97,107.67-49.485,1.514-91.733-30.477-105.759-74.988-.356-1.129-1.462-1.845-2.634-1.68l-67.74,9.537,51.008,6.375c.869.109,1.604.684,1.931,1.497,2.578,6.426,5.657,12.596,9.19,18.462.845,1.403.056,3.22-1.542,3.578l-53.574,11.995,72.066,7.509c.555.058,1.069.309,1.46.708,28.051,28.653,69.347,44.289,113.983,37.001,53.869-8.794,96.474-51.226,105.451-105.065,8.708-52.228-13.984-99.929-52.228-127.272Z"/>
  <path class="cls-1" d="m130.693,73.103l-61.877-6.458,46.468-8.373c.43-.077.828-.272,1.155-.562,22.765-20.141,52.696-32.366,85.482-32.366,20.327,0,39.553,4.706,56.658,13.077l-11.509,16.565c-.349.51-.701,1.02-1.051,1.53-13.453-6.07-28.381-9.449-44.098-9.449-26.475,0-50.712,9.585-69.428,25.475-.5.424-1.147.629-1.799.561Z"/>
  <path class="cls-1" d="m93.554,175.031c1.532.083,2.759-1.27,2.505-2.783-.971-5.803-1.476-11.764-1.476-17.844,0-24.829,8.431-47.69,22.585-65.875.012-.015.024-.031.036-.046,1.306-1.676-.003-4.098-2.118-3.895l-1.593.153-80.015,7.67,47.98,7.758c1.537.249,2.454,1.875,1.839,3.305-6.717,15.625-10.438,32.843-10.438,50.93,0,.481.003.962.008,1.441.013,1.185-.845,2.199-2.014,2.393L0,169.988l93.554,5.043Z"/>
  <path class="cls-1" d="m256.859,28.429l10.434,6.214-16.098,23.168c-6.804,9.941-13.683,19.838-20.425,29.816-6.787,9.951-13.51,19.941-20.213,29.942l-4.297,6.49c-1.418-.201-2.866-.311-4.34-.311-17.578,0-31.7,14.793-30.597,32.609.94,15.183,13.229,27.572,28.404,28.629,5.544.386,10.8-.705,15.418-2.917l26.141,19.874-6.514,6.478,38.927,18.163-17.947-39.027-6.514,6.478-19.729-26.252c1.964-4.043,3.068-8.581,3.068-13.378,0-6.849-2.247-13.172-6.042-18.275l3.658-6.867c5.6-10.658,11.18-21.328,16.696-32.036,5.561-10.681,10.985-21.444,16.485-32.162l12.701-25.191,10.434,6.214,7.362-46.086-37.012,28.429Zm-35.876,128.007s0,.003,0,.005c-.048.458-.114.911-.195,1.359-.056.311-.177.812-.251,1.118-.078.323-.153.647-.248.963-.08.268-.174.53-.266.793-.102.294-.205.587-.32.874-.105.261-.219.517-.335.772-.127.279-.258.554-.398.826-.127.247-.257.491-.394.732-.153.269-.315.531-.481.791-.145.228-.289.457-.444.679-.185.265-.382.52-.579.775-.155.201-.305.406-.468.6-.25.298-.516.58-.784.862-.129.136-.248.28-.38.411-.397.395-.812.77-1.242,1.129-.174.145-.359.277-.538.416-.278.216-.555.431-.845.632-.206.143-.421.274-.633.409-.278.177-.558.351-.846.514-.225.127-.455.247-.686.365-.29.149-.584.291-.883.425-.238.107-.477.211-.72.308-.309.124-.625.236-.942.345-.242.083-.484.167-.73.24-.342.102-.692.185-1.042.268-.231.055-.459.117-.693.163-.455.09-.919.155-1.384.211-.137.017-.27.045-.408.059-.634.063-1.277.097-1.928.097-10.589,0-19.173-8.584-19.173-19.172,0-9.478,6.884-17.329,15.92-18.876.518-.089,1.041-.16,1.571-.211.555-.048,1.114-.085,1.682-.085.604,0,1.2.036,1.79.09.144.013.286.033.429.051.354.046.709.089,1.061.151.299.053.595.11.889.176.379.084.753.183,1.123.289.192.055.385.105.575.166.479.154.949.327,1.41.516.185.076.364.16.546.242.371.166.739.34,1.097.528.231.122.454.254.679.385.25.145.497.293.739.449.244.157.484.318.72.485.202.143.398.294.595.445.249.192.501.382.74.586.11.094.213.195.321.291.57.508,1.111,1.046,1.617,1.618.066.075.136.146.201.221.258.3.501.612.74.928.08.106.16.211.238.318.237.327.466.661.682,1.003.051.08.098.162.148.243.736,1.203,1.349,2.49,1.808,3.849.653,1.93,1.023,3.991,1.023,6.141,0,.687-.039,1.364-.11,2.031Z"/>
</svg>