<?xml version="1.0" encoding="UTF-8"?>
<svg id="_レイヤー_1" data-name="レイヤー 1" xmlns="http://www.w3.org/2000/svg" viewBox="0 0 288.899 283.465">
  <defs>
    <style>
      .cls-1, .cls-2 {
        fill: #61915e;
        stroke-width: 0px;
      }

      .cls-2 {
        isolation: isolate;
      }
    </style>
  </defs>
  <polygon class="cls-2" points="224.384 188.374 194.789 193.012 221.512 177.552 213.341 157.012 198.322 143.54 190.371 153.037 183.304 150.828 175.574 170.926 179.549 144.644 182.862 146.632 185.512 128.301 179.549 101.135 171.157 98.264 146.2 107.982 166.519 90.975 157.905 74.19 138.249 68.669 131.59 72.83 122.448 106.365 93.333 76.289 41.981 66.463 1.012 102.82 0 170.505 55.368 235.237 167.953 283.465 231.663 201.893 224.384 188.374"/>
  <polygon class="cls-1" points="192.212 42.681 194.273 100.325 230.862 0 224.604 2.558 192.212 42.681"/>
  <polygon class="cls-1" points="231.157 72.35 240.506 85.086 209.881 105.699 209.881 96.35 231.157 72.35"/>
  <polygon class="cls-1" points="282.322 78.46 277.611 101.724 247.427 107.908 282.322 78.46"/>
  <polygon class="cls-1" points="288.899 134.632 228.543 133.38 221.476 137.65 259.758 157.233 288.899 134.632"/>
</svg>