<?xml version="1.0" encoding="UTF-8"?>
<svg id="_レイヤー_1" data-name="レイヤー 1" xmlns="http://www.w3.org/2000/svg" viewBox="0 0 316.218 283.465">
  <defs>
    <style>
      .cls-1 {
        fill: #fff;
        stroke-width: 0px;
      }
    </style>
  </defs>
  <polygon class="cls-1" points="236.21 39.432 217.18 26.69 203.433 18.911 207.829 20.429 177.317 0 188.405 19.554 196.994 23.853 189.232 21.012 194.468 30.246 202.421 35.348 194.36 31.961 187.016 50.018 192.702 49.163 188.618 61.976 200.159 52.698 197.583 64.853 207.843 56.085 205.148 68.801 214.326 59.609 212.339 72.67 222.345 63.262 219.531 76.539 223.125 72.059 232.804 47.926 208.352 43.434 233.68 45.741 236.21 39.432"/>
  <polygon class="cls-1" points="276.686 76.539 276.86 100.273 240.795 116.219 228.679 135.887 236.25 112.292 276.686 76.539"/>
  <polyline class="cls-1" points="265.094 136.201 256.468 132.967 238.032 134.015"/>
  <polygon class="cls-1" points="248.569 121.002 270.757 114.08 306.135 108.449 316.218 115.325 248.569 121.002"/>
  <polygon class="cls-1" points="239.576 98.697 242.808 91.747 253.157 77.384 253.559 83.824 239.576 98.697"/>
  <polygon class="cls-1" points="270.671 130.668 283.677 127.717 313.008 129.934 305.731 140.785 270.671 130.668"/>
  <path class="cls-1" d="m268.334,154.418l-6.115-3.352-17.649,17.669,3.551-9.448-15.309,2.162-3.817,4.029-8.319,5.963-4.712,13.472-30.847,8.834,28.344-9.571,3.239-13.472,7.288-6.994,1.179-7.071-4.236-8.153-7.745-1.867-28.023,4.38-10.316-.393-5.798,9.607-23.356,2.319,21.534-3.423,4.528-10.712,18.023-2.12,22.106-22.618,1.483-5.035-12.78.642,16.002-9.192-7.525-7.122-6.207-2.728-27.884,10.163,8.641-5.786-28.506,12.745,23.397-29.772-14.409,3.525,19.187-11.545-12.029-8.165-12.157,2.051-13.956,10.172-7.859,10.896-11.209,6.598-2.871,15.488,2.282-16.859,9.055-5.448,5.26-8.67,23.782-20.507-11.392-1.344c-3.171.893-6.136,1.813-8.974,2.665-12.365,3.71-27.439,7.635-46.607,22.234-19.419,14.79-26.327,29.986-26.327,29.986l-17.009.514-12.726-25.119,14.888-32.191L0,106.014l41.946,83.806,36.252,1.096,33.436,66.203,12.688-1.612,30.541,27.956,2.342-33.432,30.809,28.185,4.236-48.379,30.172,38.055,10.202-40.491,20.361,26.62,10.104-40.152,11.479-5.64-6.235-53.812Z"/>
</svg>