<?xml version="1.0" encoding="UTF-8"?>
<svg id="_レイヤー_1" data-name="レイヤー 1" xmlns="http://www.w3.org/2000/svg" viewBox="0 0 276.899 283.465">
  <defs>
    <style>
      .cls-1 {
        fill: #231815;
        stroke-width: 0px;
      }
    </style>
  </defs>
  <path class="cls-1" d="m0,140.014c7.183-1.091,14.184-2.154,21.185-3.216.21-.032.422-.056.634-.073,11.999-.918,18.829-4.512,22.505-18.921,10.713-42,39.408-66.55,82.095-73.934,4.649-.804,7.09-2.322,7.946-7.096,2.137-11.91,4.638-23.754,7.221-36.774,2.803,14.775,5.417,28.551,8.083,42.603,6.81,1.788,13.785,3.374,20.606,5.465,12.188,3.736,23.66,9.492,32.08,19.011,16.165,18.275,32.772,36.594,35.476,62.749.157,1.518,2.524,3.805,4.093,4.018,11.553,1.566,23.165,2.695,34.975,4.851-4.203.962-8.369,2.166-12.618,2.831-7.072,1.106-14.251,1.588-21.262,2.965-1.791.352-4.006,2.855-4.48,4.759-1.073,4.306-.26,9.225-1.858,13.234-4.781,12-10.188,23.759-15.657,35.468-6.786,14.53-18.605,24.456-32.206,31.72-7.855,4.195-17.067,6.007-25.83,8.255-9.801,2.514-14.283,6.907-16.102,17.156-1.668,9.399-3.427,18.781-5.956,28.379-1.299-6.771-2.602-13.54-3.895-20.312-.44-2.304-.738-4.642-1.295-6.916-2.989-12.211-3.869-12.468-15.999-14.823-6.321-1.228-12.553-3.797-18.334-6.736-7.367-3.744-14.543-8.045-21.268-12.858-23.359-16.716-35.133-40.413-38.926-68.332-.701-5.159-2.166-6.694-7.034-7.386-11.231-1.596-22.359-3.932-34.18-6.087Zm82.818-4.979c.045.595.091,1.19.136,1.785-5.638,1.402-11.264,2.852-16.916,4.195-7.22,1.716-8.767,3.411-6.276,10.462,2.238,6.333,5.872,12.195,9.125,18.134,18.418,33.624,56.492,49.886,92.932,38.891,32.103-9.686,50.338-32.466,57.77-64.998-4.909-1.576-9.696-3.113-16.138-5.181,5.394-1.754,9.224-2.476,12.481-4.258,1.915-1.047,4.217-3.831,4.14-5.743-1.773-43.831-27.482-71.483-69.31-79.07-4.48-.813-7.358.485-7.396,5.942-.039,5.545-.795,11.086-1.238,16.628-.524.06-1.047.12-1.571.18-1.463-4.076-3.3-8.059-4.317-12.244-2.782-11.451-3.328-11.803-14.098-9.423-43.924,9.706-62.966,48.051-63.358,77.52-.074,5.519,2.08,7.282,7.034,7.202,5.665-.091,11.333-.021,17-.021Z"/>
  <path class="cls-1" d="m101.723,136.959c7.681-.764,14.039-1.56,20.421-1.996,12.261-.837,16.641-5.224,16.839-17.782.172-10.875.036-21.755.036-32.632.676-.096,1.352-.191,2.028-.287.317,1.575.566,3.167.963,4.721,3.251,12.719,5.919,25.642,10.167,38.017,1.3,3.786,6.654,6.616,10.712,8.863,3.549,1.965,7.884,2.495,13.202,4.047-6.067.578-10.843.866-15.566,1.532-4.725.666-7.789,2.683-8.629,8.304-.692,4.63-4.277,8.793-5.136,13.433-1.999,10.804-3.107,21.773-4.64,32.667-.154,1.095-.739,2.129-2.275,3.081-.935-8.746-1.74-17.509-2.862-26.232-.536-4.171-1.29-8.392-2.606-12.37-4.763-14.394-15.109-21.197-29.988-21.54-.465-.011-.917-.601-2.666-1.825Z"/>
</svg>