<?xml version="1.0" encoding="UTF-8"?>
<svg id="_レイヤー_1" data-name="レイヤー 1" xmlns="http://www.w3.org/2000/svg" viewBox="0 0 314.591 283.465">
  <defs>
    <style>
      .cls-1 {
        fill: #fff;
        stroke-width: 0px;
      }
    </style>
  </defs>
  <path class="cls-1" d="m49.363,197.392c-15.343-29.767-29.879-118.855-33.489-142.137L118.431,14.729l-1.775-14.729L0,46.096l.82,5.622c.689,4.717,17.074,115.943,35.787,152.25,19.249,37.346,98.554,76.322,101.922,77.963l3.143,1.533-4.034-18.108c-19.723-10.353-74.29-40.831-88.275-67.964Z"/>
  <path class="cls-1" d="m197.291.538l-4.293,13.964,104.807,55.453c-6.153,22.743-30.41,109.689-48.937,137.585-18.231,27.452-83.932,53.584-99.46,59.467-.489-.322-1.046-.692-1.642-1.089l-.121,17.008,3.293-1.178c3.527-1.26,86.641-31.268,109.885-66.267,22.596-34.025,51.131-142.77,52.334-147.383l1.435-5.497L197.291.538Z"/>
  <path class="cls-1" d="m130.786,234.595l25.99-42.472-27.892-42.472,29.794-53.882-36.133-46.909-2.679-22.224L27.225,63.243l.246,1.687c.573,3.926,14.209,96.506,29.599,126.36,12.951,25.129,60.444,51.599,77.551,60.523l-3.835-17.217Z"/>
  <path class="cls-1" d="m189.526,25.79l-5.661,18.412,27.739,54.734-44.294,54.407,15.274,40.597-34.603,41.768-.125,17.453c1.069.696,1.764,1.138,1.994,1.284l.887.561.988-.353c2.906-1.039,71.38-25.756,90.156-54.027,18.582-27.978,42.329-118.493,43.331-122.332l.431-1.649-96.116-50.854Z"/>
</svg>