<?xml version="1.0" encoding="UTF-8"?>
<svg id="_レイヤー_1" data-name="レイヤー 1" xmlns="http://www.w3.org/2000/svg" viewBox="0 0 327.317 283.465">
  <defs>
    <style>
      .cls-1 {
        fill: #231815;
      }

      .cls-1, .cls-2 {
        stroke-width: 0px;
      }

      .cls-2 {
        fill: #fff;
      }
    </style>
  </defs>
  <polygon class="cls-2" points="245.488 0 81.829 0 0 141.732 81.829 283.465 245.488 283.465 327.317 141.732 245.488 0"/>
  <polygon class="cls-1" points="150.604 128.678 163.658 37.969 176.712 128.655 267.421 141.732 176.735 154.81 163.658 245.495 150.581 154.786 59.895 141.732 150.604 128.678"/>
  <path class="cls-1" d="m89.38,159.211c9.03,26.972,29.824,47.792,56.81,56.803-11.628-1.478-22.609-6.44-31.785-13.732l-38.76,27.464,27.463-38.758c-7.293-9.172-12.255-20.148-13.727-31.777Z"/>
  <path class="cls-1" d="m237.936,159.211c-9.03,26.972-29.824,47.792-56.81,56.803,11.628-1.478,22.609-6.44,31.785-13.732l38.76,27.464-27.463-38.758c7.293-9.172,12.255-20.148,13.727-31.777Z"/>
  <path class="cls-1" d="m237.936,124.254c-9.03-26.972-29.824-47.792-56.81-56.803,11.628,1.478,22.609,6.44,31.785,13.732l38.76-27.464-27.463,38.758c7.293,9.172,12.255,20.148,13.727,31.777Z"/>
  <path class="cls-1" d="m89.38,124.254c9.03-26.972,29.824-47.792,56.81-56.803-11.628,1.478-22.609,6.44-31.785,13.732l-38.76-27.464,27.463,38.758c-7.293,9.172-12.255,20.148-13.727,31.777Z"/>
</svg>