<?xml version="1.0" encoding="UTF-8"?>
<svg id="_レイヤー_1" data-name="レイヤー 1" xmlns="http://www.w3.org/2000/svg" viewBox="0 0 265.484 283.465">
  <defs>
    <style>
      .cls-1 {
        fill: #925252;
        stroke-width: 0px;
      }
    </style>
  </defs>
  <polygon class="cls-1" points="159.368 214.878 213.674 233.048 132.742 263.08 51.81 233.048 106.116 214.878 106.116 197.924 0 233.048 132.742 283.465 265.484 233.048 159.368 197.924 159.368 214.878"/>
  <path class="cls-1" d="m181.699,86.186c3.147-2.756,64.38,21.232,64.38,21.232L132.742,0,19.405,107.418s61.233-23.988,64.38-21.232c3.147,2.756-7.896,23.988-7.896,23.988,0,0,15.35-17.2,20.153-13.423,4.804,3.777-8.558,55.121-8.558,55.121l23.632-36.339v116.571s5.669-10.14,9.644-14.903,11.982-8.983,11.982-8.983c0,0,8.006,4.219,11.982,8.983s9.644,14.903,9.644,14.903v-116.571l23.632,36.339s-13.362-51.344-8.558-55.121c4.804-3.777,20.153,13.423,20.153,13.423,0,0-11.043-21.232-7.896-23.988Z"/>
</svg>