<?xml version="1.0" encoding="UTF-8"?>
<svg id="_レイヤー_1" data-name="レイヤー 1" xmlns="http://www.w3.org/2000/svg" viewBox="0 0 265.484 283.465">
  <defs>
    <style>
      .cls-1 {
        fill: #925252;
        stroke-width: 0px;
      }
    </style>
  </defs>
  <polygon class="cls-1" points="158.495 214.586 213.674 233.048 132.742 263.08 51.81 233.048 106.99 214.586 93.734 202.022 0 233.048 132.742 283.465 265.484 233.048 171.75 202.022 158.495 214.586"/>
  <path class="cls-1" d="m83.785,145.918c-3.147,2.756-64.38-21.232-64.38-21.232l113.337,107.418,113.337-107.418s-61.233,23.988-64.38,21.232c-3.147-2.756,7.896-23.988,7.896-23.988,0,0-15.35,17.2-20.153,13.423-4.804-3.777,8.558-55.121,8.558-55.121l-23.632,36.339V0s-5.669,10.14-9.644,14.903-11.982,8.983-11.982,8.983c0,0-8.006-4.219-11.982-8.983S111.116,0,111.116,0v116.571l-23.632-36.339s13.362,51.344,8.558,55.121c-4.804,3.777-20.153-13.423-20.153-13.423,0,0,11.043,21.232,7.896,23.988Z"/>
</svg>