<?xml version="1.0" encoding="UTF-8"?>
<svg id="_レイヤー_1" data-name="レイヤー 1" xmlns="http://www.w3.org/2000/svg" viewBox="0 0 314.679 283.465">
  <defs>
    <style>
      .cls-1 {
        fill: #925252;
        isolation: isolate;
        stroke-width: 0px;
      }
    </style>
  </defs>
  <path class="cls-1" d="m293.837,29.361L236.858,0l-55.298,26.168-24.221,42.692-24.221-42.692L77.82,0,20.842,29.361,0,106.005l43.868,89.754,113.471,87.705,113.471-87.705,43.868-89.754-20.842-76.644Zm-70.074,122.972v35.324l-5.853-13.804-42.129-6.294-3.216,3.216,6.294,42.129,13.804,5.853h-70.648l13.804-5.853,6.294-42.129-3.216-3.216-42.129,6.294-5.853,13.804v-70.648l5.853,13.804,42.129,6.294,3.216-3.216-6.294-42.129-13.804-5.853h70.648l-13.804,5.853-6.294,42.129,3.216,3.216,42.129-6.294,5.853-13.804v35.324Z"/>
</svg>