<?xml version="1.0" encoding="UTF-8"?>
<svg id="_レイヤー_1" data-name="レイヤー 1" xmlns="http://www.w3.org/2000/svg" viewBox="0 0 327.317 283.465">
  <defs>
    <style>
      .cls-1 {
        fill: #fff;
      }

      .cls-1, .cls-2 {
        stroke-width: 0px;
      }

      .cls-2 {
        fill: #925252;
      }
    </style>
  </defs>
  <polygon class="cls-1" points="245.488 0 81.829 0 0 141.732 81.829 283.465 245.488 283.465 327.317 141.732 245.488 0"/>
  <path class="cls-2" d="m227.39,227.857c-1.198-2.383-2.684-4.349-5.35-5.347l-.225.173c.138,1.469.654,2.648,1.268,3.752.592,1.121,1.652,1.883,2.506,2.803,1.715,1.846,3.504,3.625,5.351,5.347l.225-.173c-.581-1.13-1.222-2.213-1.831-3.321-.629-1.093-1.277-2.171-1.944-3.234Z"/>
  <path class="cls-2" d="m97.881,101.802c-4.128,5.133-7.626,10.771-10.435,16.733-.669-.071-1.34-.125-1.988-.245-1.309-.252-3.952-.678-5.275-.852-1.779-.223-3.554-.455-5.364-.582l-.178.539c2.952,1.861,6.258,3.663,9.39,5.204.451.222.891.482,1.331.746-4.184,10.517-6.272,21.855-5.911,33.12.369-11.169,2.782-22.229,7.241-32.367.68.348,1.387.625,2.168.699,1.981.232,3.835.102,5.811-.764,0,0,.178-.539.178-.539-1.068-1.875-2.476-3.086-4.204-4.083-.447-.272-.923-.448-1.413-.576,3.095-5.972,6.8-11.391,10.984-16.244-.551-.585-1.081-1.151-1.588-1.694-.248.302-.501.599-.746.905Z"/>
  <path class="cls-2" d="m258.176,168.244c-2.854-1.091-5.718-1.965-8.689-2.254,1.991-15.826-.546-32.077-7.225-46.598,3.594-1.529,7.169-3.104,10.715-4.745l-.096-.267c-3.842,1.008-7.664,2.087-11.471,3.216-.48-.983-.978-1.958-1.497-2.924,1.157-.593,2.303-1.213,3.445-1.841,5.153-2.601,10.722-5.548,15.752-8.337,0,0-.144-.324-.144-.324-5.451,1.854-11.365,3.997-16.757,6.068-1.346.443-2.679.914-3.991,1.424-2.466-4.171-5.317-8.139-8.514-11.863-.116.126-.225.248-.342.374-.588.634-1.212,1.301-1.865,1.996,2.939,3.365,5.584,6.934,7.912,10.676-3.221,1.468-6.257,3.284-8.951,5.729l.144.324c1.56-.136,3.043-.448,4.497-.823,2.144-.481,4.179-1.229,6.155-2.117.456.809.892,1.627,1.32,2.45-4.438,1.148-8.778,2.706-12.435,5.582,0,0,.096.267.096.267,4.75-.112,9.174-1.736,13.408-3.733,6.805,14.036,9.631,29.813,8.219,45.365-1.164-.025-2.347.047-3.554.239,0,0-.084.344-.084.344,1.091.809,2.224,1.448,3.38,1.989-1.2,9.899-4.147,19.653-8.879,28.763-2.553-1.54-5.364-2.637-8.344-3.229l-.289.404c.757,1.416,1.673,2.61,2.636,3.736,1.933,2.198,4.054,4.179,6.616,5.595,1.269.7,2.554,1.377,3.787,2.128,4.804,2.927,10.109,5.997,15.06,8.632l.289-.404c-3.054-2.874-6.541-5.919-9.721-8.675-1.962-1.631-4.725-3.947-6.555-5.679-1.052-.909-2.178-1.714-3.353-2.432,5.217-8.84,8.582-18.418,10.188-28.216.528.212,1.06.409,1.595.597,2.208.803,4.578.91,6.871,1.315,1.72.31,5.184.882,6.913,1.143,2.319.321,4.626.692,6.955.97,0,0,.084-.344.084-.344-4.255-1.568-8.939-3.163-13.279-4.524Z"/>
  <path class="cls-2" d="m128.564,71.299c.616,1.892,1.404,3.712,2.352,5.443-4.013,1.7-7.911,3.718-11.655,6.044.724.68,1.481,1.396,2.271,2.145,3.576-2.077,7.282-3.9,11.098-5.428,1.264,1.84,2.713,3.564,4.354,5.131l.522-.222c.071-1.91-.145-3.698-.448-5.449-.064-.343-.134-.683-.204-1.024,17.801-6.059,37.467-6.21,55.577.242-.285.474-.709,1.181-.709,1.181-.642,1.087-1.571,2.052-1.85,3.321-.297,1.248-.454,2.558-.065,4.108,0,0,.325.143.325.143,1.951-1.153,3.164-2.564,3.733-4.561.194-.987.57-2.283.886-3.325,3.897,1.522,7.708,3.375,11.411,5.528.923-.875,1.799-1.7,2.63-2.477-4.228-2.55-8.626-4.698-13.142-6.443.215-.87.417-1.74.586-2.579,0,0-.324-.143-.324-.143-.521.711-1.041,1.471-1.551,2.239-15.718-5.781-32.77-6.762-48.873-3.117.121-.788.118-1.543.062-2.285-.077-1.315-.844-2.435-1.308-3.628-.345-.903-1.088-2.699-1.48-3.583-.532-1.184-1.059-2.37-1.651-3.539,0,0-.343.089-.343.089.113,2.522.386,5.242.729,7.746.061,2.183.452,4.097,1.742,5.739-2.417.615-4.81,1.338-7.171,2.164-.576-1.961-1.319-3.862-2.331-5.66-.854-1.516-1.739-3.019-2.528-4.564-3.073-6.017-6.564-12.501-9.954-18.321,0,0-.522.222-.522.222,1.365,4.847,3.062,10.144,4.62,14.952,1.003,2.896,2.402,6.995,3.215,9.91Z"/>
  <path class="cls-2" d="m250.291,225.392l-1.894.373s-18.8-19.654-27.906-28.519c-8.155-7.939-6.245-11.486-6.245-11.486l14.85-14.946,2.251.221,4.816-5.006-8.843-9.126-4.156,4.061.201,3.412-14.075,13.171s-13.314-13.615-30.408-30.891c18.367-18.288,37.569-37.647,47.948-48.829,23.822-25.663,27.479-41.881,27.479-41.881,0,0-16.218,3.657-41.881,27.479-11.17,10.368-30.5,29.541-48.771,47.89-18.271-18.349-37.601-37.522-48.771-47.89-25.663-23.822-41.881-27.479-41.881-27.479,0,0,3.657,16.218,27.479,41.881,10.379,11.181,29.581,30.54,47.948,48.829-17.095,17.276-30.408,30.891-30.408,30.891l-14.075-13.171.201-3.412-4.156-4.061-8.843,9.126,4.816,5.006,2.251-.221,14.85,14.946s1.91,3.547-6.245,11.486c-9.106,8.865-27.906,28.519-27.906,28.519l-1.894-.373-3.995,4.562-.024,7.296,7.296-.024,4.562-3.995-.373-1.894s19.654-18.8,28.519-27.906c7.939-8.155,11.486-6.245,11.486-6.245l14.946,14.85-.221,2.251,5.006,4.816,9.126-8.843-4.061-4.156-3.412.201-13.172-14.075s13.646-13.343,30.948-30.465c17.303,17.122,30.948,30.465,30.948,30.465l-13.171,14.075-3.412-.201-4.061,4.156,9.126,8.843,5.006-4.816-.221-2.251,14.946-14.85s3.547-1.91,11.486,6.245c8.865,9.106,28.519,27.906,28.519,27.906l-.373,1.894,4.562,3.995,7.296.024-.024-7.296-3.995-4.562Z"/>
</svg>