<?xml version="1.0" encoding="UTF-8"?>
<svg id="_レイヤー_1" data-name="レイヤー 1" xmlns="http://www.w3.org/2000/svg" viewBox="0 0 207.738 283.465">
  <defs>
    <style>
      .cls-1 {
        fill: #fff;
        stroke-width: 0px;
      }
    </style>
  </defs>
  <path class="cls-1" d="m165.601,142.95c-13.793-12.809-24.836-18.551-24.836-42.993v-17.08h4.123c6.18,0,11.19-5.01,11.19-11.19v-7.656c0-6.18-5.01-11.19-11.19-11.19h-68.319c-6.18,0-11.19,5.01-11.19,11.19v7.656c0,6.18,5.01,11.19,11.19,11.19h4.123v17.08c0,24.442-11.043,30.184-24.836,42.993-15.994,14.853-26.109,35.983-26.109,59.533,0,44.725,36.257,80.982,80.982,80.982s80.982-36.257,80.982-80.982c0-23.55-10.114-44.681-26.109-59.533Zm-13.204,25.658c.793,0,1.436.643,1.436,1.436s-.643,1.436-1.436,1.436-1.436-.643-1.436-1.436.643-1.436,1.436-1.436Zm-26.945-16.675c5.001,0,9.055,4.054,9.055,9.055s-4.054,9.055-9.055,9.055-9.055-4.054-9.055-9.055,4.054-9.055,9.055-9.055Zm4.859,30.92c0,2.074-1.681,3.755-3.755,3.755s-3.755-1.681-3.755-3.755,1.681-3.755,3.755-3.755,3.755,1.681,3.755,3.755Zm-33.681-27.239c1.708,0,3.092,1.384,3.092,3.092s-1.384,3.092-3.092,3.092-3.092-1.384-3.092-3.092,1.384-3.092,3.092-3.092Zm-.331,27.239c4.757,0,8.614,3.856,8.614,8.614s-3.856,8.613-8.614,8.613-8.613-3.856-8.613-8.613,3.856-8.614,8.613-8.614Zm-18.663-5.521c2.013,0,3.644,1.632,3.644,3.644s-1.632,3.644-3.644,3.644-3.644-1.632-3.644-3.644,1.632-3.644,3.644-3.644Zm99.316,16.363c.378,2.876.573,5.81.573,8.789,0,36.891-29.906,66.797-66.797,66.797-34.369,0-62.676-25.957-66.385-59.337,0,0,6.127-8.206,18.716-8.206s19.877,13.472,35.669,13.472,35.337-28.601,58.969-28.601c14.135,0,19.254,7.087,19.254,7.087Z"/>
  <circle class="cls-1" cx="39.611" cy="122.926" r="11.043" transform="translate(-75.32 64.014) rotate(-45)"/>
  <circle class="cls-1" cx="8.249" cy="70.951" r="8.249"/>
  <circle class="cls-1" cx="54.63" cy="16.325" r="16.325"/>
  <circle class="cls-1" cx="158.433" cy="24.423" r="8.227"/>
  <circle class="cls-1" cx="193.623" cy="83.908" r="14.114" transform="translate(42.006 230.683) rotate(-67.5)"/>
  <circle class="cls-1" cx="196.274" cy="134.706" r="9.129"/>
</svg>