<?xml version="1.0" encoding="UTF-8"?>
<svg id="_レイヤー_1" data-name="レイヤー 1" xmlns="http://www.w3.org/2000/svg" viewBox="0 0 257.674 283.465">
  <defs>
    <style>
      .cls-1 {
        fill: #fff;
        stroke-width: 0px;
      }
    </style>
  </defs>
  <polygon class="cls-1" points="219.494 209.182 247.964 209.182 241.393 196.408 207.875 196.408 219.494 209.182"/>
  <polygon class="cls-1" points="35.2 159.635 222.474 159.635 212.816 140.862 44.858 140.862 35.2 159.635"/>
  <polygon class="cls-1" points="184.892 196.408 72.782 196.408 74.719 209.182 182.955 209.182 184.892 196.408"/>
  <polygon class="cls-1" points="180.679 224.182 76.995 224.182 78.477 233.955 179.197 233.955 180.679 224.182"/>
  <polygon class="cls-1" points="242.03 233.955 257.264 233.955 257.674 228.055 255.681 224.182 233.14 224.182 242.03 233.955"/>
  <path class="cls-1" d="m59.239,110.089h139.195l25.669-23.825-64.638,3.534,1.472-16.344,22.675-6.92,6.479-45.35L163.441,0l6.707,13.675-5.676,21.055-8.834,3.239s-11.931-10.601-26.8-10.601-26.8,10.601-26.8,10.601l-8.834-3.239-5.676-21.055,6.707-13.675-26.65,21.184,6.479,45.35,22.675,6.92,1.472,16.344-64.638-3.534,25.669,23.825Z"/>
  <polygon class="cls-1" points="85.988 283.465 128.837 283.465 171.686 283.465 172.253 279.728 85.421 279.728 85.988 283.465"/>
  <polygon class="cls-1" points="15.644 233.955 24.534 224.182 1.993 224.182 0 228.055 .41 233.955 15.644 233.955"/>
  <polygon class="cls-1" points="81.208 251.955 82.235 258.728 175.439 258.728 176.466 251.955 81.208 251.955"/>
  <polygon class="cls-1" points="59.146 113.089 47.945 134.862 209.729 134.862 198.528 113.089 59.146 113.089"/>
  <polygon class="cls-1" points="69.497 174.755 70.961 184.408 186.713 184.408 188.177 174.755 196.959 184.408 235.219 184.408 227.104 168.635 30.57 168.635 22.455 184.408 60.715 184.408 69.497 174.755"/>
  <polygon class="cls-1" points="49.799 196.408 16.281 196.408 9.71 209.182 38.179 209.182 49.799 196.408"/>
</svg>