<?xml version="1.0" encoding="UTF-8"?>
<svg id="_レイヤー_1" data-name="レイヤー 1" xmlns="http://www.w3.org/2000/svg" viewBox="0 0 273.797 283.465">
  <defs>
    <style>
      .cls-1 {
        fill: #fff;
        stroke-width: 0px;
      }
    </style>
  </defs>
  <path class="cls-1" d="m136.898,283.465l-3.038-1.482c-3.254-1.586-79.887-39.249-98.487-75.336C17.291,171.564,1.458,64.085.792,59.528l-.792-5.433L136.898,0l136.899,54.095-.794,5.433c-.665,4.558-16.5,112.036-34.582,147.119-18.6,36.088-95.233,73.751-98.486,75.336l-3.038,1.482ZM15.339,62.945c3.489,22.498,17.535,108.584,32.361,137.348,14.589,28.305,74.91,60.394,89.198,67.696,14.287-7.302,74.608-39.391,89.197-67.696,14.826-28.764,28.872-114.85,32.362-137.348L136.898,14.91,15.339,62.945Z"/>
  <path class="cls-1" d="m136.898,256.32l-.911-.444c-2.68-1.307-65.816-32.331-80.84-61.481-14.871-28.848-28.048-118.308-28.602-122.102l-.238-1.63,110.591-43.7,110.59,43.7-.238,1.63c-.554,3.794-13.731,93.254-28.6,122.102-15.025,29.15-78.16,60.174-80.84,61.481l-.911.444Z"/>
</svg>