<?xml version="1.0" encoding="UTF-8"?>
<svg id="_レイヤー_1" data-name="レイヤー 1" xmlns="http://www.w3.org/2000/svg" viewBox="0 0 283.465 283.465">
  <defs>
    <style>
      .cls-1 {
        fill: #61915e;
      }

      .cls-1, .cls-2 {
        stroke-width: 0px;
      }

      .cls-2 {
        fill: #fff;
      }
    </style>
  </defs>
  <circle class="cls-2" cx="141.732" cy="141.732" r="141.732"/>
  <g>
    <path class="cls-1" d="m175.147,45.553c-7.244-4.795-15.304-7.958-20.1-14.998s-8.264-18.977-8.264-18.977c0,0-3.367,12.652-10.611,19.998-7.244,7.346-21.528,12.141-28.67,18.263-7.142,6.122-17.243,21.426-18.569,31.527-1.326,10.101.688,23.279,2.445,27.626,1.458,3.608-7.546,19.92-7.546,19.92l28.262-17.855s-7.856-16.733-2.041-33.159c5.816-16.427,22.548-23.875,34.282-23.671,11.733.204,35.812,7.652,34.69,36.526-1.122,28.874-21.63,37.751-32.853,38.771-11.223,1.02-21.392-3.197-21.392-3.197,0,0,6.394,11.427,8.774,21.902,1.919,8.445,3.673,29.452,3.639,36.764s0,78.256,0,80.297.102,6.598,4.693,6.598,5.748-4.319,5.748-6.326,2.273-86.082,2.925-94.105c.544-6.7,1.735-16.733,6.53-23.058,4.795-6.326,13.57-10.305,21.528-15.202,7.958-4.897,21.018-17.651,21.018-43.77s-17.243-39.077-24.487-43.872Z"/>
    <path class="cls-1" d="m148.496,101.635c1.707-3.741,6.183-9.727,6.183-9.727,0,0-5.51-7.006-7.686-10.951-2.177-3.945-4.679-14.964-4.679-14.964,0,0-2.503,11.019-4.679,14.964-2.177,3.945-7.686,10.951-7.686,10.951,0,0,4.475,5.986,6.183,9.727,1.708,3.741,6.183,14.284,6.183,14.284,0,0,4.475-10.543,6.183-14.284Z"/>
  </g>
</svg>