<?xml version="1.0" encoding="UTF-8"?>
<svg id="_レイヤー_1" data-name="レイヤー 1" xmlns="http://www.w3.org/2000/svg" viewBox="0 0 343.278 283.465">
  <defs>
    <style>
      .cls-1 {
        fill: #61915e;
        stroke-width: 0px;
      }
    </style>
  </defs>
  <path class="cls-1" d="m267.264,0l27.166,30.681-5.742,32.025-18.994,5.08s-12.691-14.523-39.092-24.442c-26.061-9.791-44.046-9.129-58.962-9.129s-32.901-.663-58.962,9.129c-26.401,9.919-39.092,24.442-39.092,24.442l-18.994-5.08-5.742-32.025L76.015,0,0,30.46l18.591,106.675,39.755,13.252,15.018,84.368,14.577,2.429,24.515,41.08,13.693-36.221,24.736,41.422,20.753-52.133,20.753,52.133,24.736-41.422,13.693,36.221,24.515-41.08,14.577-2.429,15.018-84.368,39.755-13.252,18.591-106.675L267.264,0Z"/>
</svg>