<?xml version="1.0" encoding="UTF-8"?>
<svg id="_レイヤー_1" data-name="レイヤー 1" xmlns="http://www.w3.org/2000/svg" viewBox="0 0 301.453 283.465">
  <defs>
    <style>
      .cls-1 {
        fill: #61915e;
        stroke-width: 0px;
      }
    </style>
  </defs>
  <path class="cls-1" d="m74.516,180.886l-53.457-36.902c-2.439-1.684-3.054-5.038-1.37-7.477l19.858-28.767-4.591-26.345L4.262,125.858c-7.555,10.945-4.798,25.997,6.148,33.552l68.728,47.444-4.622-25.968Z"/>
  <path class="cls-1" d="m88.615,36.658l10.768-15.599c1.042-1.509,2.724-2.32,4.432-2.32,1.053,0,2.115.308,3.045.95l53.556,36.97c7.611.451,16.886,1.841,28.23,6.103,4.971,1.868,9.286,3.984,12.959,6.102l-14.917-16.848L117.509,4.262c-10.945-7.555-25.997-4.797-33.552,6.148l-26.829,38.865,31.486-12.617Z"/>
  <path class="cls-1" d="m291.043,124.054l-32.064-22.134-3.543,20.332,24.957,17.228c2.44,1.684,3.054,5.038,1.371,7.476l-79.695,115.448c-1.684,2.439-5.038,3.053-7.477,1.37l-54.065-37.322h-32.996l76.411,52.747c4.174,2.882,8.943,4.263,13.668,4.263,7.665,0,15.21-3.638,19.884-10.409l79.695-115.448c7.556-10.945,4.798-25.997-6.147-33.553Z"/>
  <path class="cls-1" d="m205.133,50.856l16.016,18.089-3.386,18.881-11.198,2.995s-7.482-8.562-23.048-14.41c-15.365-5.773-25.968-5.382-34.762-5.382s-19.397-.391-34.762,5.382c-15.566,5.848-23.048,14.41-23.048,14.41l-11.198-2.995-3.386-18.881,16.016-18.089-44.816,17.958,10.961,62.893,23.438,7.813,8.854,49.741,8.594,1.432,14.454,24.22,8.073-21.355,14.584,24.421,12.236-30.736,12.236,30.736,14.584-24.421,8.073,21.355,14.454-24.22,8.594-1.432,8.854-49.741,23.438-7.813,10.961-62.893-44.816-17.958Z"/>
</svg>