<?xml version="1.0" encoding="UTF-8"?>
<svg id="_レイヤー_1" data-name="レイヤー 1" xmlns="http://www.w3.org/2000/svg" viewBox="0 0 185.669 283.465">
  <defs>
    <style>
      .cls-1 {
        fill: #fff;
        stroke-width: 0px;
      }
    </style>
  </defs>
  <path class="cls-1" d="m179.706,0S40.785,38.411,19.141,40.178s-14.209-.515-14.209-.515c0,0-.074,30.699.442,36.515s2.429,17.669,2.429,17.669L0,125.65s10.086,12.883,12.074,16.785,6.847,13.546,6.847,13.546c0,0,2.061,20.393,1.84,26.282s-2.503,23.926-2.503,23.926c0,0,20.466-19.215,28.859-23.19s44.466-15.092,44.466-15.092c0,0-.515,21.497-.294,28.712s1.84,25.914,1.84,25.914c0,0-6.479,14.724-8.613,22.16s-.442,9.202-1.62,15.607-6.479,23.164-6.479,23.164c0,0,17.963-28.317,23.19-34.06s23.19-16.123,23.19-16.123c0,0,7.804-19.436,12.074-27.534s15.166-22.675,15.166-22.675c0,0,7.215-36.442,11.632-47.485s24-56.245,24-56.245l-86.429,30.037s13.578-37.983,21.055-49.031C125.227,53.061,179.706,0,179.706,0Z"/>
</svg>